<?xml version="1.0" standalone="no"?>
<!DOCTYPE svg PUBLIC "-//W3C//DTD SVG 20010904//EN"
 "http://www.w3.org/TR/2001/REC-SVG-20010904/DTD/svg10.dtd">
<svg version="1.0" xmlns="http://www.w3.org/2000/svg"
 width="351.000000pt" height="144.000000pt" viewBox="0 0 351.000000 144.000000"
 preserveAspectRatio="xMidYMid meet">

<g transform="translate(0.000000,144.000000) scale(0.100000,-0.100000)"
fill="#000000" stroke="none">
<path d="M1450 1080 c-11 -11 -20 -28 -20 -38 0 -41 69 -69 98 -40 18 18 14
63 -6 81 -25 22 -48 21 -72 -3z"/>
<path d="M1630 775 l0 -325 29 0 c20 0 34 8 46 26 17 26 17 26 38 6 36 -32 63
-42 119 -42 63 0 109 24 138 72 17 29 20 51 20 173 0 157 -10 187 -72 225 -50
30 -144 28 -192 -5 l-36 -24 0 109 0 110 -45 0 -45 0 0 -325z m251 60 c40 -21
49 -50 49 -156 0 -87 -1 -92 -29 -120 -39 -39 -106 -41 -148 -5 -27 24 -28 27
-28 129 0 91 3 108 20 127 37 41 86 50 136 25z"/>
<path d="M2100 775 l0 -325 48 0 47 0 -3 325 -3 325 -44 0 -45 0 0 -325z"/>
<path d="M1250 985 l0 -106 -30 23 c-44 32 -152 37 -198 9 -63 -40 -72 -69
-72 -226 0 -122 3 -144 20 -173 29 -48 75 -72 138 -72 56 0 83 10 119 42 21
20 21 20 38 -6 12 -18 26 -26 46 -26 l29 0 0 320 0 320 -45 0 -45 0 0 -105z
m-43 -161 c33 -21 43 -54 43 -142 0 -92 -13 -121 -63 -145 -31 -16 -42 -17
-72 -7 -60 20 -75 50 -75 151 0 48 5 99 11 113 24 52 101 67 156 30z"/>
<path d="M137 926 c-46 -13 -107 -59 -107 -80 0 -6 17 -20 37 -32 l36 -21 23
26 c19 22 30 26 77 26 69 0 97 -21 97 -75 l0 -38 -87 -4 c-143 -7 -208 -54
-208 -149 0 -56 24 -95 76 -122 50 -26 135 -19 188 16 l41 27 16 -25 c11 -17
25 -25 45 -25 l29 0 0 189 c0 179 -1 190 -23 222 -41 63 -147 91 -240 65z
m163 -300 c0 -48 -8 -65 -41 -81 -34 -18 -109 -19 -131 -2 -23 18 -30 50 -15
70 17 24 83 46 140 47 47 0 47 0 47 -34z"/>
<path d="M2416 929 c-54 -13 -97 -42 -121 -81 -17 -28 -20 -51 -20 -163 0
-112 3 -135 20 -165 30 -52 93 -80 177 -80 76 0 125 16 163 54 32 33 32 40 -7
63 -33 19 -33 19 -67 -4 -69 -47 -170 -25 -187 41 -15 60 -12 61 149 64 l147
3 0 70 c0 38 -6 84 -14 102 -19 47 -67 84 -126 96 -58 12 -60 12 -114 0z m130
-110 c16 -15 24 -34 24 -56 l0 -33 -100 0 -100 0 0 26 c0 37 18 64 53 80 41
18 93 11 123 -17z"/>
<path d="M474 915 c-3 -8 -4 -92 -2 -187 3 -193 12 -221 78 -265 56 -39 153
-27 212 24 15 13 18 12 33 -11 12 -18 26 -26 46 -26 l29 0 0 241 0 240 -47 -3
-48 -3 -3 -177 -2 -177 -27 -20 c-37 -30 -103 -28 -140 3 l-28 24 -3 176 -3
176 -45 0 c-30 0 -46 -5 -50 -15z"/>
<path d="M1440 691 l0 -241 50 0 50 0 -2 238 -3 237 -47 3 -48 3 0 -240z"/>
<path d="M449 251 c-23 -19 -23 -20 -5 -27 12 -5 21 -3 24 4 5 17 42 15 42 -2
0 -8 -12 -17 -27 -21 -38 -9 -53 -23 -53 -51 0 -27 30 -47 55 -37 10 3 29 6
44 7 25 1 26 2 23 61 -4 64 -18 85 -58 85 -12 0 -32 -9 -45 -19z m59 -83 c-4
-29 -38 -38 -38 -10 0 22 8 32 27 32 9 0 13 -8 11 -22z"/>
<path d="M828 259 c-22 -12 -24 -39 -3 -39 8 0 15 5 15 10 0 6 9 10 20 10 30
0 24 -29 -7 -36 -39 -9 -53 -23 -53 -50 0 -29 32 -48 63 -37 12 4 31 8 42 8
18 0 20 6 17 60 -4 64 -18 85 -56 85 -12 0 -29 -5 -38 -11z m62 -83 c0 -18
-27 -39 -40 -31 -14 9 -13 32 3 38 23 10 37 7 37 -7z"/>
<path d="M960 253 c0 -7 11 -13 25 -13 l26 0 -31 -44 c-43 -63 -40 -71 25 -71
44 0 55 3 53 15 -2 8 -13 16 -26 18 -28 4 -28 10 3 52 14 19 25 37 25 41 0 4
-23 9 -50 11 -35 2 -50 -1 -50 -9z"/>
<path d="M1105 245 c-33 -32 -33 -78 0 -111 44 -44 100 -11 100 57 0 31 -6 46
-24 60 -31 25 -47 24 -76 -6z m60 -35 c9 -39 -2 -72 -23 -68 -17 3 -29 56 -18
84 9 25 34 15 41 -16z"/>
<path d="M2074 254 c-18 -15 -18 -15 4 -9 33 9 62 -20 62 -60 0 -34 -12 -50
-45 -58 -16 -4 -16 -5 5 -6 33 -1 47 9 59 41 17 46 -16 108 -56 108 -5 0 -18
-7 -29 -16z"/>
<path d="M52 248 c-19 -19 -14 -33 6 -15 23 21 46 22 62 2 17 -21 4 -35 -34
-35 -38 0 -56 -15 -56 -47 0 -29 41 -48 71 -33 27 15 24 18 -13 16 -24 -1 -33
4 -36 18 -5 23 14 36 52 36 24 0 27 -3 23 -21 -6 -24 1 -49 14 -49 14 0 11
114 -3 128 -7 7 -26 12 -43 12 -17 0 -36 -5 -43 -12z"/>
<path d="M201 193 c-1 -43 3 -73 9 -73 6 0 10 24 10 53 0 55 12 77 41 77 25 0
33 -16 40 -80 6 -54 7 -53 5 15 l-1 70 -33 3 c-18 2 -39 -2 -47 -8 -10 -8 -14
-8 -18 2 -3 7 -6 -20 -6 -59z"/>
<path d="M590 185 c0 -59 3 -75 15 -75 10 0 15 15 17 57 2 46 7 59 21 61 15 3
17 -5 17 -57 0 -54 2 -61 20 -61 16 0 19 8 22 57 2 46 7 59 21 61 15 3 17 -5
17 -58 0 -53 2 -61 18 -58 13 2 18 15 20 52 5 75 -3 96 -36 96 -15 0 -33 -5
-40 -12 -9 -9 -12 -9 -12 0 0 16 -57 15 -63 0 -4 -10 -6 -10 -6 0 -1 6 -8 12
-16 12 -12 0 -15 -15 -15 -75z"/>
<path d="M1230 184 c0 -66 2 -75 18 -72 13 2 18 16 22 58 4 40 9 55 20 55 11
0 16 -14 18 -57 2 -44 7 -58 18 -58 12 0 14 14 12 73 -3 67 -5 72 -26 75 -13
2 -30 -2 -38 -8 -10 -9 -14 -9 -14 -1 0 6 -7 11 -15 11 -12 0 -15 -15 -15 -76z"/>
<path d="M1484 252 c-40 -26 -40 -101 1 -128 28 -18 71 -10 86 17 12 23 -3 25
-21 4 -18 -22 -46 -18 -64 7 -21 30 -20 54 4 78 25 25 34 25 60 -2 15 -16 20
-18 20 -7 0 32 -55 52 -86 31z"/>
<path d="M1626 238 c-23 -33 -20 -75 9 -103 13 -14 29 -25 35 -25 16 0 53 21
62 34 13 19 9 71 -8 94 -21 30 -77 30 -98 0z m78 -4 c19 -18 21 -75 4 -92 -47
-47 -107 39 -61 90 20 22 37 23 57 2z"/>
<path d="M1792 190 c1 -71 1 -72 7 -24 14 115 79 113 82 -3 l2 -48 6 52 c13
106 74 113 79 9 2 -31 7 -56 12 -56 13 0 13 96 0 121 -12 21 -59 26 -77 8 -8
-8 -13 -8 -17 0 -9 14 -63 14 -72 0 -4 -8 -9 -7 -15 2 -5 9 -8 -16 -7 -61z"/>
<path d="M2042 165 c1 -55 3 -83 5 -62 3 22 8 35 15 31 6 -4 5 3 -2 16 -7 13
-10 37 -7 55 3 17 1 38 -4 46 -5 9 -8 -24 -7 -86z"/>
<path d="M2210 245 c-7 -8 -10 -18 -6 -22 3 -4 12 1 19 11 19 25 61 18 65 -11
3 -20 -1 -23 -28 -23 -66 0 -94 -44 -46 -75 18 -12 29 -13 50 -5 15 5 32 7 37
4 6 -3 9 21 7 63 l-3 68 -41 3 c-28 2 -45 -2 -54 -13z m80 -73 c0 -24 -19 -42
-46 -42 -26 0 -39 27 -23 46 18 21 69 18 69 -4z"/>
<path d="M2360 190 c0 -40 4 -70 10 -70 6 0 10 19 10 43 0 52 23 89 53 85 20
-3 22 -10 25 -65 2 -35 7 -63 12 -63 14 0 12 114 -2 128 -15 15 -61 15 -76 0
-9 -9 -12 -9 -12 0 0 7 -4 12 -10 12 -6 0 -10 -30 -10 -70z"/>
<path d="M2541 191 c31 -73 30 -97 -5 -112 -18 -8 -17 -8 8 -6 27 2 33 9 67
95 21 51 33 92 26 89 -6 -2 -21 -28 -33 -58 l-22 -54 -21 48 c-12 27 -21 53
-21 58 0 5 -6 9 -14 9 -11 0 -7 -17 15 -69z"/>
<path d="M980 100 c-23 -7 -23 -8 9 -9 33 -1 34 -2 28 -37 -6 -33 -5 -35 8
-18 19 25 19 60 -1 68 -9 3 -16 6 -17 5 -1 -1 -13 -5 -27 -9z"/>
<path d="M574 81 c25 -27 123 -68 183 -76 60 -8 150 8 206 37 44 22 45 34 2
18 -96 -37 -255 -30 -354 16 -47 21 -52 22 -37 5z"/>
</g>
</svg>
